<svg width="30" height="30" viewBox="0 0 30 30" fill="none" xmlns="http://www.w3.org/2000/svg">
<g id="categories">
<path id="Vector" d="M27 6.99991H23.0616L24.0615 3.00001H21.9999L21 6.99991H12.9999L13.4025 11.0193C13.2687 11.0106 13.1358 11.0001 12.9999 11.0001H11.0001C7.6875 11.0001 5.0001 13.6854 5.0001 17.0001C4.73744 17 4.47732 17.0516 4.23462 17.1521C3.99193 17.2525 3.7714 17.3998 3.58566 17.5856C3.39991 17.7713 3.25258 17.9918 3.15209 18.2345C3.0516 18.4771 2.99992 18.7372 3 18.9999V21C3.00032 21.5304 3.21114 22.0389 3.58617 22.4139C3.96119 22.789 4.46974 22.9998 5.0001 23.0001C5.0001 25.2069 6.7911 27 9 27H24.9999L27 6.99991ZM11.0001 12.9999L12.9999 12.999C15.21 12.999 17.0001 14.7912 17.0001 17.0001H6.9999C6.9999 14.79 8.7912 12.9999 11.0001 12.9999ZM5.0001 18.9981L18.9999 18.9999V21H5.0001V18.9981ZM9 24.9999C8.46964 24.9998 7.96105 24.789 7.586 24.414C7.21095 24.039 7.00014 23.5305 6.9999 23.0001H17.001H17.0001C17.0001 23.2628 16.9484 23.5228 16.8478 23.7655C16.7473 24.0081 16.6 24.2286 16.4143 24.4143C16.2285 24.6 16.008 24.7473 15.7654 24.8478C15.5227 24.9482 15.2626 24.9999 15 24.9999H9ZM23.1906 24.9999H18.4452C18.789 24.4101 18.9999 23.7324 18.9999 23.0001H18.999H18.9999C19.5303 22.9999 20.039 22.7892 20.414 22.4141C20.7891 22.0391 20.9998 21.5304 21 21V18.9999C21.0001 18.7372 20.9484 18.4771 20.8479 18.2345C20.7474 17.9918 20.6001 17.7713 20.4143 17.5856C20.2286 17.3998 20.0081 17.2525 19.7654 17.1521C19.5227 17.0516 19.2626 17 18.9999 17.0001C18.9999 14.5656 17.5467 12.4725 15.4629 11.5332L15.21 9.00001H24.7902L23.1906 24.9999Z" fill="#3949AB"/>
</g>
</svg>
