<svg width="20" height="20" viewBox="0 0 20 20" fill="none" xmlns="http://www.w3.org/2000/svg">
<g id="Frame" clip-path="url(#clip0_54_444)">
<path id="Vector" d="M18.125 5H1.875C1.52982 5 1.25 5.27982 1.25 5.625V14.375C1.25 14.7202 1.52982 15 1.875 15H18.125C18.4702 15 18.75 14.7202 18.75 14.375V5.625C18.75 5.27982 18.4702 5 18.125 5Z" stroke="#3949AB" stroke-width="1.5" stroke-linecap="round" stroke-linejoin="round"/>
<path id="Vector_2" d="M10 12.5C11.3807 12.5 12.5 11.3807 12.5 10C12.5 8.61929 11.3807 7.5 10 7.5C8.61929 7.5 7.5 8.61929 7.5 10C7.5 11.3807 8.61929 12.5 10 12.5Z" stroke="#3949AB" stroke-width="1.5" stroke-linecap="round" stroke-linejoin="round"/>
<path id="Vector_3" d="M13.75 5L18.75 9.375" stroke="#3949AB" stroke-width="1.5" stroke-linecap="round" stroke-linejoin="round"/>
<path id="Vector_4" d="M13.75 15L18.75 10.625" stroke="#3949AB" stroke-width="1.5" stroke-linecap="round" stroke-linejoin="round"/>
<path id="Vector_5" d="M6.25 5L1.25 9.375" stroke="#3949AB" stroke-width="1.5" stroke-linecap="round" stroke-linejoin="round"/>
<path id="Vector_6" d="M6.25 15L1.25 10.625" stroke="#3949AB" stroke-width="1.5" stroke-linecap="round" stroke-linejoin="round"/>
</g>
<defs>
<clipPath id="clip0_54_444">
<rect width="20" height="20" fill="white"/>
</clipPath>
</defs>
</svg>
