<svg width="24" height="24" viewBox="0 0 24 24" fill="none" xmlns="http://www.w3.org/2000/svg">
<path d="M13.951 2.71651L14.1333 2.88651L14.8521 3.60526C15.0989 3.85098 15.4228 4.00248 15.7673 4.03652L15.916 4.04384H16.944C18.5478 4.04384 19.8592 5.29801 19.9509 6.87889L19.956 7.05584V8.08284C19.956 8.43264 20.0766 8.76892 20.2942 9.0363L20.3933 9.14651L21.1121 9.86531C22.2436 10.9917 22.2942 12.793 21.2576 13.9801L21.1223 14.1252L20.3939 14.8535C20.149 15.0991 19.9974 15.4232 19.9633 15.7673L19.956 15.9158V16.9448C19.956 18.5486 18.7019 19.8592 17.1209 19.9507L16.944 19.9558H15.916C15.5674 19.9558 15.2307 20.077 14.9632 20.2952L14.8529 20.3945L14.1351 21.1114C13.0099 22.2442 11.2073 22.2945 10.0198 21.2575L9.86565 21.1132L9.14854 20.3961C8.90014 20.1494 8.57571 19.9974 8.2322 19.9632L8.08398 19.9558H7.05498C5.45185 19.9558 4.1407 18.7023 4.0491 17.1218L4.04398 16.9448V15.9158C4.04398 15.5679 3.92268 15.2308 3.7046 14.9638L3.60528 14.8538L2.88816 14.1357C1.75558 13.0095 1.70534 11.2069 2.74236 10.0205L2.87765 9.87551L3.60377 9.1484C3.85072 8.89969 4.00255 8.57588 4.03664 8.23152L4.04398 8.08284V7.05584L4.0491 6.87891C4.13732 5.35675 5.35648 4.13721 6.87811 4.04896L7.05498 4.04384H8.08398C8.43246 4.04384 8.76923 3.92296 9.03628 3.70578L9.14628 3.60688L9.86445 2.88772C10.9908 1.75624 12.7932 1.70642 13.951 2.71651ZM11.0414 3.84263L10.9267 3.9468L10.2054 4.66905C9.68818 5.18264 9.00406 5.48972 8.28181 5.53733L8.08398 5.54384H7.05498C6.26742 5.54384 5.6197 6.14799 5.55016 6.91828L5.54398 7.05584V8.08284C5.54398 8.81201 5.27937 9.51316 4.80208 10.0612L4.66668 10.2068L3.93951 10.935C3.3877 11.4893 3.35557 12.365 3.84322 12.959L3.94768 13.0739L4.66694 13.7941C5.18134 14.3098 5.48963 14.9951 5.53744 15.7179L5.54398 15.9158V16.9448C5.54398 17.7329 6.14769 18.3802 6.9175 18.4497L7.05498 18.4558H8.08398C8.81177 18.4558 9.51353 18.7208 10.0617 19.1981L10.2073 19.3335L10.9306 20.0568C11.4888 20.6119 12.3647 20.6442 12.9583 20.1566L13.073 20.0521L13.7939 19.3323C14.3106 18.818 14.9951 18.5101 15.718 18.4624L15.916 18.4558H16.944C17.7327 18.4558 18.3803 17.8524 18.4498 17.0824L18.456 16.9448V15.9158C18.456 15.187 18.7208 14.484 19.1974 13.9383L19.3327 13.7935L20.0602 13.066C20.612 12.5111 20.6439 11.6358 20.157 11.042L20.0527 10.9272L19.3308 10.2053C18.8169 9.68772 18.5101 9.00428 18.4625 8.281L18.456 8.08284V7.05584C18.456 6.26743 17.8519 5.61958 17.0816 5.55002L16.944 5.54384H15.916C15.1868 5.54384 14.4848 5.27946 13.9379 4.80249L13.7927 4.66717L13.1047 3.9774L13.0649 3.94037C12.5106 3.38861 11.6347 3.3563 11.0414 3.84263ZM15.0964 14.0424C15.1664 14.1124 15.2264 14.1924 15.2664 14.2824C15.2964 14.3724 15.3164 14.4724 15.3164 14.5724C15.3164 14.6734 15.2964 14.7624 15.2664 14.8524C15.2264 14.9424 15.1664 15.0324 15.0964 15.1024C14.9564 15.2424 14.7664 15.3224 14.5664 15.3224C14.3664 15.3224 14.1764 15.2424 14.0364 15.1024C13.9664 15.0324 13.9164 14.9424 13.8764 14.8524C13.8364 14.7624 13.8164 14.6734 13.8164 14.5724C13.8164 14.4724 13.8364 14.3724 13.8764 14.2824C13.9164 14.1924 13.9664 14.1124 14.0364 14.0424C14.3164 13.7624 14.8164 13.7624 15.0964 14.0424ZM15.1 8.89921C15.3663 9.16548 15.3905 9.58214 15.1726 9.87575L15.1 9.95987L9.96001 15.0999C9.66712 15.3928 9.19225 15.3928 8.89935 15.0999C8.63309 14.8336 8.60888 14.4169 8.82673 14.1233L8.89935 14.0392L14.0394 8.89921C14.3322 8.60632 14.8071 8.60632 15.1 8.89921ZM9.95628 8.90284C10.0963 9.04184 10.1763 9.23284 10.1763 9.43284C10.1763 9.53284 10.1663 9.62184 10.1263 9.71284C10.0863 9.80284 10.0263 9.88284 9.95628 9.96284C9.88628 10.0328 9.80628 10.0818 9.71628 10.1218C9.62628 10.1618 9.52628 10.1828 9.42628 10.1828C9.32628 10.1828 9.23628 10.1618 9.14628 10.1218C9.05628 10.0818 8.96628 10.0328 8.89628 9.96284C8.82628 9.88284 8.77628 9.80284 8.73628 9.71284C8.69628 9.62184 8.67628 9.53284 8.67628 9.43284C8.67628 9.33184 8.69628 9.23284 8.73628 9.14284C8.77628 9.05284 8.82628 8.96284 8.89628 8.90284C9.18628 8.62184 9.67628 8.62184 9.95628 8.90284Z" fill="white"/>
</svg>
