<svg width="24" height="24" viewBox="0 0 24 24" fill="none" xmlns="http://www.w3.org/2000/svg">
<path fill-rule="evenodd" clip-rule="evenodd" d="M1.70696 12.2929L13.707 0.292893C13.8945 0.105357 14.1488 0 14.4141 0H21.9998C23.1044 0 23.9998 0.89543 23.9998 2V9.58579C23.9998 9.851 23.8945 10.1054 23.707 10.2929L11.707 22.2929C11.3164 22.6834 10.6833 22.6834 10.2927 22.2929L1.70696 13.7071C1.31643 13.3166 1.31643 12.6834 1.70696 12.2929ZM17.9998 8C19.1044 8 19.9998 7.10457 19.9998 6C19.9998 4.89543 19.1044 4 17.9998 4C16.8953 4 15.9998 4.89543 15.9998 6C15.9998 7.10457 16.8953 8 17.9998 8Z" fill="#3949AB"/>
</svg>
