<svg width="20" height="30" viewBox="0 0 20 30" fill="none" xmlns="http://www.w3.org/2000/svg">
<g id="Frame">
<path id="Vector" d="M15.4428 0.592146C15.4033 0.53394 15.3526 0.484107 15.2937 0.445494C15.2349 0.406882 15.169 0.380247 15.0998 0.367113C15.0307 0.353978 14.9596 0.354601 14.8907 0.368947C14.8218 0.383292 14.7564 0.411078 14.6982 0.450717L10.2336 3.48607C10.1616 3.53525 10.1026 3.60127 10.0619 3.67838C10.0212 3.75549 9.99997 3.84138 9.99998 3.92857V9.82036H11.0714V4.2125L15.3014 1.33572C15.4187 1.25578 15.4994 1.13259 15.5259 0.993183C15.5524 0.853777 15.5226 0.709545 15.4428 0.592146ZM13.75 29.6429H6.24998C6.12091 29.6428 5.99619 29.5962 5.89874 29.5116C5.8013 29.4269 5.7377 29.3099 5.71963 29.1821L3.57677 14.1821C3.56566 14.1064 3.57111 14.0291 3.59276 13.9557C3.6144 13.8823 3.65171 13.8144 3.70213 13.7568C3.7522 13.6984 3.81435 13.6516 3.88427 13.6196C3.9542 13.5876 4.03023 13.5712 4.10713 13.5714H15.8928C16.0482 13.5714 16.1961 13.6379 16.2978 13.7568C16.3482 13.8144 16.3855 13.8823 16.4071 13.9557C16.4287 14.0292 16.4342 14.1064 16.4232 14.1821L14.2803 29.1821C14.2623 29.3099 14.1987 29.4269 14.1012 29.5116C14.0038 29.5962 13.8791 29.6428 13.75 29.6429ZM6.71499 28.5714H13.2861L15.2757 14.6429H4.72534L6.71499 28.5714Z" fill="#3A49AB" stroke="#3A49AB" stroke-width="0.5"/>
<path id="Vector_2" d="M18.0357 14.6429H1.9643C1.82222 14.6429 1.68596 14.5864 1.5855 14.486C1.48503 14.3855 1.42859 14.2492 1.42859 14.1071C1.42859 12.62 2.62002 11.4286 4.08573 11.4286H15.9143C16.6188 11.4291 17.2944 11.7093 17.7926 12.2075C18.2907 12.7056 18.5709 13.3812 18.5714 14.0857C18.5714 14.3825 18.3314 14.6429 18.0357 14.6429ZM2.58573 13.5714H17.4143C17.2 12.9489 16.6086 12.5 15.9143 12.5H4.08573C3.39145 12.5 2.80002 12.9489 2.58573 13.5714Z" fill="#3A49AB" stroke="#3A49AB" stroke-width="0.5"/>
<path id="Vector_3" d="M15.5704 12.5H4.85609C4.71401 12.5 4.57775 12.4436 4.47728 12.3431C4.37681 12.2426 4.32037 12.1064 4.32037 11.9643C4.32037 10.4771 5.5118 9.28571 6.97752 9.28571H13.4489C14.1535 9.28628 14.829 9.56641 15.3272 10.0646C15.8254 10.5628 16.1055 11.2383 16.1061 11.9429C16.1061 12.2396 15.8661 12.5 15.5704 12.5ZM5.47752 11.4286H14.9489C14.7347 10.8061 14.1432 10.3571 13.4489 10.3571H6.97752C6.28323 10.3571 5.6918 10.8061 5.47752 11.4286ZM10.0664 22.0839C8.28894 22.0839 6.84359 20.6386 6.84359 18.8611C6.84359 17.0836 8.29002 15.6382 10.0664 15.6382C11.8429 15.6382 13.2893 17.0836 13.2893 18.8611C13.2893 20.6386 11.8439 22.0839 10.0664 22.0839ZM10.0664 16.5929C8.81609 16.5929 7.79823 17.6107 7.79823 18.8611C7.79823 20.1114 8.81609 21.1293 10.0664 21.1293C11.3168 21.1293 12.3347 20.1114 12.3347 18.8611C12.3347 17.6107 11.3168 16.5929 10.0664 16.5929Z" fill="#3A49AB" stroke="#3A49AB" stroke-width="0.5"/>
</g>
</svg>
