<svg width="20" height="20" viewBox="0 0 20 20" fill="none" xmlns="http://www.w3.org/2000/svg">
<path d="M16.9512 16.0075C17.2543 16.0075 17.5 16.2483 17.5 16.5454C17.5 16.8178 17.2935 17.0428 17.0257 17.0784L16.9512 17.0834H11.2258C10.9227 17.0834 10.677 16.8425 10.677 16.5454C10.677 16.2731 10.8835 16.048 11.1514 16.0124L11.2258 16.0075H16.9512ZM11.3827 3.68054C12.4217 2.66207 14.1069 2.66207 15.1459 3.68054L16.2245 4.73785C17.2635 5.75631 17.2635 7.40823 16.2245 8.42669L8.11717 16.3738C7.65359 16.8283 7.02506 17.0833 6.36901 17.0833H3.04878C2.74035 17.0833 2.49249 16.8342 2.50017 16.5319L2.58369 13.2479C2.6003 12.6272 2.85939 12.0355 3.30722 11.5965L11.3827 3.68054ZM10.755 5.81585L4.08332 12.3572C3.83438 12.6012 3.69012 12.9307 3.68089 13.2754L3.61121 16.007L6.36901 16.0074C6.69352 16.0074 7.00559 15.8954 7.2519 15.6931L7.34108 15.6131L14.0458 9.04085L10.755 5.81585ZM14.3698 4.4413C13.7594 3.84299 12.7691 3.84299 12.1588 4.4413L11.5317 5.05502L14.8217 8.28002L15.4484 7.66593C16.0249 7.10086 16.0569 6.20363 15.5445 5.60165L15.4484 5.49861L14.3698 4.4413Z" fill="white"/>
</svg>
