<svg width="30" height="30" viewBox="0 0 30 30" fill="none" xmlns="http://www.w3.org/2000/svg">
<g id="Frame">
<path id="Vector" d="M27 21C27.0001 21.2627 26.9484 21.5228 26.8479 21.7655C26.7474 22.0082 26.6001 22.2287 26.4144 22.4145C26.2286 22.6002 26.0081 22.7475 25.7654 22.848C25.5227 22.9485 25.2626 23.0002 24.9999 23.0001H5.0001C4.46964 23.0001 3.96091 22.7894 3.58582 22.4143C3.21072 22.0392 3 21.5305 3 21H27ZM27 16.8888V18.9999C26.3662 19.2635 25.6865 19.3993 25.0001 19.3993C24.3136 19.3993 23.6339 19.2635 23.0001 18.9999C22.3662 18.7364 21.6865 18.6007 21 18.6007C20.3135 18.6007 19.6338 18.7364 18.9999 18.9999C18.3661 19.2635 17.6864 19.3993 17 19.3993C16.3135 19.3993 15.6338 19.2635 15 18.9999C14.3662 18.7364 13.6865 18.6007 13.0001 18.6007C12.3136 18.6007 11.6339 18.7364 11.0001 18.9999C10.3662 19.2635 9.68651 19.3993 9 19.3993C8.31349 19.3993 7.63376 19.2635 6.9999 18.9999C6.36606 18.7364 5.68639 18.6007 4.99995 18.6007C4.31351 18.6007 3.63384 18.7364 3 18.9999V16.8888C4.57212 16.43 6.2539 16.5231 7.7658 17.1525C8.15697 17.3159 8.57668 17.4 9.0006 17.4C9.42452 17.4 9.84423 17.3159 10.2354 17.1525C12.0195 16.4151 13.9842 16.4151 15.7656 17.1525C16.1568 17.3159 16.5765 17.4001 17.0004 17.4001C17.4243 17.4001 17.844 17.3159 18.2352 17.1525C20.0205 16.4142 21.9864 16.4151 23.7657 17.1525C24.1569 17.3159 24.5766 17.4001 25.0005 17.4001C25.4244 17.4001 25.8441 17.3159 26.2353 17.1525C26.4864 17.0487 26.7423 16.9629 27 16.8888ZM21 6.99989C19.9062 6.99989 18.8838 7.29779 18 7.80929C17.0891 7.27925 16.0539 7.00002 15 7.00002C13.9461 7.00002 12.911 7.27925 12 7.80929C11.0891 7.27906 10.054 6.99978 9 6.99989C5.6874 6.99989 3 9.68639 3 12.9999V15H27V12.9999C27 9.68639 24.3126 6.99989 21 6.99989ZM5.0001 12.9999C5.0001 10.791 6.7911 8.99999 9 8.99999C10.4766 8.99999 11.7519 9.80939 12.4452 11.0001H14.652C14.4242 10.3637 14.0912 9.77001 13.6668 9.24389C14.0859 9.09569 14.5305 8.99999 15 8.99999C16.4757 8.99999 17.7519 9.80939 18.4452 11.0001H20.652C20.4245 10.3639 20.0914 9.77062 19.6668 9.24509C20.0859 9.09569 20.5305 8.99999 21 8.99999C23.208 8.99999 24.9999 10.791 24.9999 12.9999H5.0001Z" fill="#3949AB"/>
</g>
</svg>
