<svg width="25" height="25" viewBox="0 0 25 25" fill="none" xmlns="http://www.w3.org/2000/svg">
<g id="Frame" clip-path="url(#clip0_37_823)">
<path id="Vector" d="M17.7083 2.08333H20.8333C21.1096 2.08333 21.3746 2.19308 21.5699 2.38843C21.7653 2.58378 21.875 2.84873 21.875 3.125V21.875C21.875 22.1513 21.7653 22.4162 21.5699 22.6116C21.3746 22.8069 21.1096 22.9167 20.8333 22.9167H4.16667C3.8904 22.9167 3.62545 22.8069 3.4301 22.6116C3.23475 22.4162 3.125 22.1513 3.125 21.875V3.125C3.125 2.84873 3.23475 2.58378 3.4301 2.38843C3.62545 2.19308 3.8904 2.08333 4.16667 2.08333H7.29167V0H9.375V2.08333H15.625V0H17.7083V2.08333ZM17.7083 4.16667V6.25H15.625V4.16667H9.375V6.25H7.29167V4.16667H5.20833V20.8333H19.7917V4.16667H17.7083ZM7.29167 8.33333H17.7083V10.4167H7.29167V8.33333ZM7.29167 12.5H17.7083V14.5833H7.29167V12.5Z" fill="#C8D1E1"/>
</g>
<defs>
<clipPath id="clip0_37_823">
<rect width="25" height="25" fill="white"/>
</clipPath>
</defs>
</svg>
