<svg width="25" height="25" viewBox="0 0 25 25" fill="none" xmlns="http://www.w3.org/2000/svg">
<g id="Frame" clip-path="url(#clip0_37_726)">
<path id="Vector" d="M13.5417 19.7917H19.7917V10.3938L12.5 4.72293L5.20833 10.3938V19.7917H11.4583V13.5417H13.5417V19.7917ZM21.875 20.8333C21.875 21.1096 21.7653 21.3746 21.5699 21.5699C21.3746 21.7653 21.1096 21.875 20.8333 21.875H4.16667C3.8904 21.875 3.62545 21.7653 3.4301 21.5699C3.23475 21.3746 3.125 21.1096 3.125 20.8333V9.88542C3.12489 9.72669 3.16106 9.57003 3.23075 9.4274C3.30043 9.28478 3.40179 9.15997 3.52708 9.06251L11.8604 2.58126C12.0433 2.43901 12.2683 2.36179 12.5 2.36179C12.7317 2.36179 12.9567 2.43901 13.1396 2.58126L21.4729 9.06251C21.5982 9.15997 21.6996 9.28478 21.7693 9.4274C21.8389 9.57003 21.8751 9.72669 21.875 9.88542V20.8333Z" fill="#C8D1E1"/>
</g>
<defs>
<clipPath id="clip0_37_726">
<rect width="25" height="25" fill="white"/>
</clipPath>
</defs>
</svg>
