<svg width="40" height="40" viewBox="0 0 40 40" fill="none" xmlns="http://www.w3.org/2000/svg">
<path d="M31.6663 3.33337H8.33301C5.57634 3.33337 3.33301 5.57671 3.33301 8.33337V13.0517C3.33301 14.8067 3.96967 16.4017 4.99967 17.6284V33.3334C4.99967 33.7754 5.17527 34.1993 5.48783 34.5119C5.80039 34.8244 6.22431 35 6.66634 35H19.9997C20.4417 35 20.8656 34.8244 21.1782 34.5119C21.4907 34.1993 21.6663 33.7754 21.6663 33.3334V25H28.333V33.3334C28.333 33.7754 28.5086 34.1993 28.8212 34.5119C29.1337 34.8244 29.5576 35 29.9997 35H33.333C33.775 35 34.199 34.8244 34.5115 34.5119C34.8241 34.1993 34.9997 33.7754 34.9997 33.3334V17.6267C36.0297 16.4017 36.6663 14.8067 36.6663 13.05V8.33337C36.6663 5.57671 34.423 3.33337 31.6663 3.33337ZM33.333 8.33337V13.0517C33.333 14.9517 31.918 16.5717 30.1813 16.6634L29.9997 16.6667C28.1613 16.6667 26.6663 15.1717 26.6663 13.3334V6.66671H31.6663C32.5863 6.66671 33.333 7.41504 33.333 8.33337ZM16.6663 13.3334V6.66671H23.333V13.3334C23.333 15.1717 21.838 16.6667 19.9997 16.6667C18.1613 16.6667 16.6663 15.1717 16.6663 13.3334ZM6.66634 8.33337C6.66634 7.41504 7.41301 6.66671 8.33301 6.66671H13.333V13.3334C13.333 15.1717 11.838 16.6667 9.99967 16.6667L9.81801 16.6617C8.08134 16.5717 6.66634 14.9517 6.66634 13.0517V8.33337ZM16.6663 26.6667H9.99967V21.6667H16.6663V26.6667Z" fill="white"/>
</svg>
