<svg width="16" height="16" viewBox="0 0 16 16" fill="none" xmlns="http://www.w3.org/2000/svg">
<path fill-rule="evenodd" clip-rule="evenodd" d="M5.33325 1.77778H1.33325V14.2222H14.6666V1.77778H10.6666V7.45064C10.6666 7.94156 10.3681 8.33953 9.99992 8.33953C9.89642 8.33953 9.79435 8.3074 9.70178 8.24568L7.99992 7.11111L6.29806 8.24568C5.96874 8.46523 5.56829 8.28725 5.40363 7.84816C5.35735 7.72473 5.33325 7.58863 5.33325 7.45064V1.77778ZM1.33333 0H14.6667C15.403 0 16 0.795938 16 1.77778V14.2222C16 15.2041 15.403 16 14.6667 16H1.33333C0.596954 16 0 15.2041 0 14.2222V1.77778C0 0.795938 0.596954 0 1.33333 0ZM6.66675 1.77778V6.01238L7.4038 5.52102C7.77917 5.27077 8.221 5.27077 8.59637 5.52102L9.33342 6.01238V1.77778H6.66675Z" fill="#3949AB"/>
</svg>
