<svg width="16" height="16" viewBox="0 0 16 16" fill="none" xmlns="http://www.w3.org/2000/svg">
<path fill-rule="evenodd" clip-rule="evenodd" d="M3.44714 14.6667H2C0.895431 14.6667 0 13.7712 0 12.6667V8C0 6.89543 0.895431 6 2 6H3.33333V0.666667C3.33333 0.298477 3.63181 0 4 0H12C12.3682 0 12.6667 0.298477 12.6667 0.666667V6H14C15.1046 6 16 6.89543 16 8V12.6667C16 13.7712 15.1046 14.6667 14 14.6667H12.5529C12.2783 15.4435 11.5375 16 10.6667 16H5.33333C4.46252 16 3.72169 15.4435 3.44714 14.6667ZM3.44714 13.3333C3.72169 12.5565 4.46252 12 5.33333 12H10.6667C11.5375 12 12.2783 12.5565 12.5529 13.3333H14C14.3682 13.3333 14.6667 13.0349 14.6667 12.6667V8C14.6667 7.63181 14.3682 7.33333 14 7.33333H2C1.63181 7.33333 1.33333 7.63181 1.33333 8V12.6667C1.33333 13.0349 1.63181 13.3333 2 13.3333H3.44714ZM4.66667 1.33333V6H11.3333V1.33333H4.66667ZM5.33333 13.3333C4.96514 13.3333 4.66667 13.6318 4.66667 14C4.66667 14.3682 4.96514 14.6667 5.33333 14.6667H10.6667C11.0349 14.6667 11.3333 14.3682 11.3333 14C11.3333 13.6318 11.0349 13.3333 10.6667 13.3333H5.33333ZM3.33333 8.66667C3.70152 8.66667 4 8.96514 4 9.33333C4 9.70152 3.70152 10 3.33333 10C2.96514 10 2.66667 9.70152 2.66667 9.33333C2.66667 8.96514 2.96514 8.66667 3.33333 8.66667Z" fill="#3949AB"/>
</svg>
