<svg width="16" height="16" viewBox="0 0 16 16" fill="none" xmlns="http://www.w3.org/2000/svg">
<path fill-rule="evenodd" clip-rule="evenodd" d="M1.33515 5.22015C1.3364 6.75926 1.33854 9.12676 1.34444 12.668C1.3452 13.0357 1.64346 13.3333 2.0111 13.3333H12.6805C13.0487 13.3333 13.3472 13.0348 13.3472 12.6666V11.3333H12.6667C11.9303 11.3333 11.3333 10.7364 11.3333 9.99998V8.66665C11.3333 7.93027 11.9303 7.33331 12.6667 7.33331H13.3472V5.99998C13.3472 5.63179 13.0487 5.33331 12.6805 5.33331H2C1.76692 5.33331 1.54315 5.29344 1.33515 5.22015ZM1.33333 3.33445C1.33395 3.70212 1.63219 3.99998 2 3.99998H4H11.3416L11.35 3.33331C11.35 2.96512 11.0515 2.66665 10.6833 2.66665H2C1.63181 2.66665 1.33333 2.96512 1.33333 3.33331L1.33334 3.33445L1.33333 3.33445ZM14.6805 11.3332V12.6666C14.6805 13.7712 13.7851 14.6666 12.6805 14.6666H2.0111C0.90816 14.6666 0.0134049 13.7738 0.011108 12.6705C0.00632354 9.79798 0.00603568 9.62515 0.00332906 7.99998H0V3.33331C0 2.22874 0.895431 1.33331 2 1.33331H10.6833C11.7879 1.33331 12.6833 2.22874 12.6833 3.34164L12.675 3.99998H12.6805C13.7851 3.99998 14.6805 4.89541 14.6805 5.99998V7.33338C15.4105 7.34083 16 7.9349 16 8.66665V9.99998C16 10.7317 15.4105 11.3258 14.6805 11.3332ZM12.6667 8.66665V9.99998H14.6667V8.66665H12.6667Z" fill="#3949AB"/>
</svg>
