<svg width="16" height="16" viewBox="0 0 16 16" fill="none" xmlns="http://www.w3.org/2000/svg">
<path d="M9.30033 1.81098L9.42188 1.92432L9.90104 2.40348C10.0656 2.5673 10.2815 2.6683 10.5112 2.69099L10.6103 2.69588H11.2957C12.3649 2.69588 13.2392 3.53199 13.3003 4.58591L13.3037 4.70388V5.38854C13.3037 5.62174 13.3841 5.84592 13.5291 6.02418L13.5952 6.09765L14.0744 6.57686C14.8288 7.32779 14.8625 8.52865 14.1714 9.32003L14.0812 9.41676L13.5956 9.90234C13.4323 10.066 13.3313 10.2821 13.3086 10.5115L13.3037 10.6105V11.2965C13.3037 12.3657 12.4676 13.2394 11.4136 13.3005L11.2957 13.3039H10.6103C10.378 13.3039 10.1535 13.3846 9.97514 13.5301L9.90164 13.5963L9.42308 14.0742C8.67295 14.8295 7.47122 14.863 6.67954 14.1716L6.57678 14.0754L6.0987 13.5973C5.9331 13.4329 5.71681 13.3316 5.48781 13.3088L5.389 13.3039H4.703C3.63424 13.3039 2.76014 12.4682 2.69907 11.4145L2.69566 11.2965V10.6105C2.69566 10.3786 2.6148 10.1539 2.46941 9.97584L2.4032 9.90252L1.92511 9.42376C1.17006 8.67297 1.13657 7.47122 1.82792 6.68031L1.91811 6.58365L2.40219 6.09891C2.56682 5.93311 2.66804 5.71723 2.69077 5.48766L2.69566 5.38854V4.70388L2.69907 4.58592C2.75789 3.57114 3.57066 2.75812 4.58508 2.69929L4.703 2.69588H5.389C5.62132 2.69588 5.84583 2.61529 6.02386 2.4705L6.0972 2.40457L6.57598 1.92512C7.32688 1.1708 8.5285 1.1376 9.30033 1.81098ZM7.36061 2.56173L7.28413 2.63118L6.80329 3.11268C6.45846 3.45507 6.00238 3.65979 5.52088 3.69153L5.389 3.69588H4.703C4.17795 3.69588 3.74614 4.09864 3.69978 4.61216L3.69566 4.70388V5.38854C3.69566 5.87465 3.51926 6.34208 3.20106 6.70746L3.11079 6.80452L2.62602 7.28996C2.25814 7.65951 2.23672 8.24329 2.56182 8.63932L2.63146 8.7159L3.11097 9.19607C3.4539 9.53982 3.65943 9.9967 3.6913 10.4786L3.69566 10.6105V11.2965C3.69566 11.8219 4.09813 12.2534 4.61134 12.2998L4.703 12.3039H5.389C5.87419 12.3039 6.34203 12.4805 6.70748 12.7987L6.80455 12.889L7.28676 13.3712C7.6589 13.7413 8.24284 13.7628 8.63851 13.4377L8.71502 13.3681L9.19561 12.8882C9.54009 12.5453 9.99638 12.3401 10.4783 12.3082L10.6103 12.3039H11.2957C11.8215 12.3039 12.2532 11.9016 12.2995 11.3882L12.3037 11.2965V10.6105C12.3037 10.1246 12.4802 9.65598 12.798 9.2922L12.8881 9.19565L13.3731 8.71066C13.741 8.34069 13.7623 7.7572 13.4376 7.36132L13.3681 7.28476L12.8869 6.8035C12.5443 6.45846 12.3397 6.00284 12.308 5.52064L12.3037 5.38854V4.70388C12.3037 4.17827 11.901 3.74636 11.3874 3.7L11.2957 3.69588H10.6103C10.1242 3.69588 9.65618 3.51962 9.29158 3.20164L9.19478 3.11143L8.73615 2.65158L8.70958 2.6269C8.34006 2.25905 7.75615 2.23751 7.36061 2.56173ZM10.0639 9.36161C10.1106 9.40827 10.1506 9.46161 10.1773 9.52161C10.1973 9.58161 10.2106 9.64827 10.2106 9.71494C10.2106 9.78227 10.1973 9.84161 10.1773 9.90161C10.1506 9.96161 10.1106 10.0216 10.0639 10.0683C9.9706 10.1616 9.84393 10.2149 9.7106 10.2149C9.57726 10.2149 9.4506 10.1616 9.35726 10.0683C9.3106 10.0216 9.27726 9.96161 9.2506 9.90161C9.22393 9.84161 9.2106 9.78227 9.2106 9.71494C9.2106 9.64827 9.22393 9.58161 9.2506 9.52161C9.27726 9.46161 9.3106 9.40827 9.35726 9.36161C9.54393 9.17494 9.87726 9.17494 10.0639 9.36161ZM10.0663 5.93279C10.2439 6.1103 10.26 6.38807 10.1148 6.58382L10.0663 6.63989L6.63968 10.0666C6.44442 10.2618 6.12784 10.2618 5.93258 10.0666C5.75506 9.88905 5.73893 9.61127 5.88416 9.41553L5.93258 9.35945L9.35924 5.93279C9.5545 5.73753 9.87109 5.73753 10.0663 5.93279ZM6.6372 5.93521C6.73053 6.02787 6.78386 6.15521 6.78386 6.28854C6.78386 6.35521 6.7772 6.41454 6.75053 6.47521C6.72386 6.53521 6.68386 6.58854 6.6372 6.64187C6.59053 6.68854 6.5372 6.72121 6.4772 6.74787C6.4172 6.77454 6.35053 6.78854 6.28386 6.78854C6.2172 6.78854 6.1572 6.77454 6.0972 6.74787C6.0372 6.72121 5.9772 6.68854 5.93053 6.64187C5.88386 6.58854 5.85053 6.53521 5.82386 6.47521C5.7972 6.41454 5.78386 6.35521 5.78386 6.28854C5.78386 6.22121 5.7972 6.15521 5.82386 6.09521C5.85053 6.03521 5.88386 5.97521 5.93053 5.93521C6.12386 5.74788 6.45053 5.74788 6.6372 5.93521Z" fill="#3949AB"/>
</svg>
