<svg width="161" height="126" viewBox="0 0 161 126" fill="none" xmlns="http://www.w3.org/2000/svg">
<path fill-rule="evenodd" clip-rule="evenodd" d="M111.016 31.0763L92.1992 11.4758C89.6059 8.7745 89.6935 4.48236 92.3948 1.88908C95.0962 -0.704205 99.3883 -0.61661 101.982 2.08473L129.103 30.3359C129.329 30.5713 129.534 30.8188 129.72 31.0763H146.719C147.466 31.0763 148.211 31.138 148.948 31.2608C156.336 32.492 161.326 39.4788 160.095 46.8661L149.739 109.003C148.104 118.811 139.618 126 129.675 126H30.6048C20.6614 126 12.1754 118.811 10.5407 109.003L0.184506 46.8661C0.0617119 46.1294 0 45.3837 0 44.6368C0 37.1475 6.07126 31.0763 13.5605 31.0763H30.5597C30.745 30.8188 30.9507 30.5713 31.1767 30.3359L58.2978 2.08473C60.8911 -0.61661 65.1832 -0.704205 67.8846 1.88908C70.5859 4.48236 70.6735 8.7745 68.0802 11.4758L49.2638 31.0763H111.016ZM80.14 58.1968C83.8846 58.1968 86.9202 61.2324 86.9202 64.9771V92.0982C86.9202 95.8428 83.8846 98.8784 80.14 98.8784C76.3953 98.8784 73.3597 95.8428 73.3597 92.0982V64.9771C73.3597 61.2324 76.3953 58.1968 80.14 58.1968ZM46.2386 58.1968C49.9833 58.1968 53.0189 61.2324 53.0189 64.9771V92.0982C53.0189 95.8428 49.9833 98.8784 46.2386 98.8784C42.494 98.8784 39.4583 95.8428 39.4583 92.0982V64.9771C39.4583 61.2324 42.494 58.1968 46.2386 58.1968ZM114.041 58.1968C117.786 58.1968 120.822 61.2324 120.822 64.9771V92.0982C120.822 95.8428 117.786 98.8784 114.041 98.8784C110.297 98.8784 107.261 95.8428 107.261 92.0982V64.9771C107.261 61.2324 110.297 58.1968 114.041 58.1968Z" fill="#758CA3"/>
</svg>
