<svg width="24" height="24" viewBox="0 0 24 24" fill="none" xmlns="http://www.w3.org/2000/svg">
<g id="Icon/shopping_cart">
<path id="Vector" d="M16.5463 13C17.2963 13 17.9563 12.59 18.2963 11.97L21.8763 5.48C22.2463 4.82 21.7663 4 21.0063 4H6.20628L5.26628 2H1.99628V4H3.99628L7.59628 11.59L6.24628 14.03C5.51628 15.37 6.47628 17 7.99628 17H19.9963V15H7.99628L9.09628 13H16.5463ZM7.15628 6H19.3063L16.5463 11H9.52628L7.15628 6ZM7.99628 18C6.89628 18 6.00628 18.9 6.00628 20C6.00628 21.1 6.89628 22 7.99628 22C9.09628 22 9.99628 21.1 9.99628 20C9.99628 18.9 9.09628 18 7.99628 18ZM17.9963 18C16.8963 18 16.0063 18.9 16.0063 20C16.0063 21.1 16.8963 22 17.9963 22C19.0963 22 19.9963 21.1 19.9963 20C19.9963 18.9 19.0963 18 17.9963 18Z" fill="#C8D1E1"/>
</g>
</svg>
