<svg width="24" height="24" viewBox="0 0 24 24" fill="none" xmlns="http://www.w3.org/2000/svg">
<path fill-rule="evenodd" clip-rule="evenodd" d="M9.03363 23.3631C8.55231 23.5942 7.97435 23.4064 7.72078 22.9365L6.15806 20.0408L2.92109 19.4494C2.39586 19.3534 2.03866 18.8618 2.1097 18.3326L2.54754 15.0713L0.276386 12.6902C-0.0921287 12.3039 -0.0921287 11.6962 0.276386 11.3098L2.54754 8.92872L2.1097 5.66743C2.03866 5.13826 2.39586 4.64662 2.92109 4.55066L6.15806 3.95927L7.72078 1.06348C7.97435 0.593611 8.55231 0.40582 9.03363 0.636909L12 2.06111L14.9664 0.636909C15.4477 0.40582 16.0257 0.593611 16.2792 1.06348L17.8419 3.95927L21.0789 4.55066C21.6041 4.64662 21.9613 5.13826 21.8903 5.66743L21.4525 8.92872L23.7236 11.3098C24.0921 11.6962 24.0921 12.3039 23.7236 12.6902L21.4525 15.0713L21.8903 18.3326C21.9613 18.8618 21.6041 19.3534 21.0789 19.4494L17.8419 20.0408L16.2792 22.9365C16.0257 23.4064 15.4477 23.5942 14.9664 23.3631L12 21.9389L9.03363 23.3631ZM10.2071 15.2071C9.81658 15.5976 9.18342 15.5976 8.79289 15.2071C8.40237 14.8166 8.40237 14.1834 8.79289 13.7929L13.7929 8.79291C14.1834 8.40238 14.8166 8.40238 15.2071 8.79291C15.5976 9.18343 15.5976 9.8166 15.2071 10.2071L10.2071 15.2071ZM9.5 11C8.67157 11 8 10.3284 8 9.50001C8 8.67159 8.67157 8.00001 9.5 8.00001C10.3284 8.00001 11 8.67159 11 9.50001C11 10.3284 10.3284 11 9.5 11ZM14.5 16C13.6716 16 13 15.3284 13 14.5C13 13.6716 13.6716 13 14.5 13C15.3284 13 16 13.6716 16 14.5C16 15.3284 15.3284 16 14.5 16Z" fill="#3949AB"/>
</svg>
