<svg width="20" height="20" viewBox="0 0 20 20" fill="none" xmlns="http://www.w3.org/2000/svg">
<g id="Frame" clip-path="url(#clip0_54_532)">
<path id="Vector" d="M8.12524 3.75H4.37524C4.03007 3.75 3.75024 4.02982 3.75024 4.375V8.125C3.75024 8.47018 4.03007 8.75 4.37524 8.75H8.12524C8.47042 8.75 8.75024 8.47018 8.75024 8.125V4.375C8.75024 4.02982 8.47042 3.75 8.12524 3.75Z" stroke="#3949AB" stroke-width="1.5" stroke-linecap="round" stroke-linejoin="round"/>
<path id="Vector_2" d="M8.12524 11.25H4.37524C4.03007 11.25 3.75024 11.5298 3.75024 11.875V15.625C3.75024 15.9702 4.03007 16.25 4.37524 16.25H8.12524C8.47042 16.25 8.75024 15.9702 8.75024 15.625V11.875C8.75024 11.5298 8.47042 11.25 8.12524 11.25Z" stroke="#3949AB" stroke-width="1.5" stroke-linecap="round" stroke-linejoin="round"/>
<path id="Vector_3" d="M15.6252 3.75H11.8752C11.5301 3.75 11.2502 4.02982 11.2502 4.375V8.125C11.2502 8.47018 11.5301 8.75 11.8752 8.75H15.6252C15.9704 8.75 16.2502 8.47018 16.2502 8.125V4.375C16.2502 4.02982 15.9704 3.75 15.6252 3.75Z" stroke="#3949AB" stroke-width="1.5" stroke-linecap="round" stroke-linejoin="round"/>
<path id="Vector_4" d="M11.2502 11.25V13.75" stroke="#3949AB" stroke-width="1.5" stroke-linecap="round" stroke-linejoin="round"/>
<path id="Vector_5" d="M11.2502 16.25H13.7502V11.25" stroke="#3949AB" stroke-width="1.5" stroke-linecap="round" stroke-linejoin="round"/>
<path id="Vector_6" d="M13.7502 12.5H16.2502" stroke="#3949AB" stroke-width="1.5" stroke-linecap="round" stroke-linejoin="round"/>
<path id="Vector_7" d="M16.2502 15V16.25" stroke="#3949AB" stroke-width="1.5" stroke-linecap="round" stroke-linejoin="round"/>
</g>
<defs>
<clipPath id="clip0_54_532">
<rect width="20" height="20" fill="white"/>
</clipPath>
</defs>
</svg>
