<svg width="43" height="43" viewBox="0 0 43 43" fill="none" xmlns="http://www.w3.org/2000/svg">
<path fill-rule="evenodd" clip-rule="evenodd" d="M39.3281 19.7083C38.4292 10.6545 30.7903 3.58333 21.4999 3.58333C12.2095 3.58333 4.57061 10.6545 3.67169 19.7083H11.5827L18.2175 9.75616C19.1184 8.40474 21.2085 8.85334 21.4755 10.4555L24.314 27.4864L28.9675 20.5062C29.2998 20.0077 29.8592 19.7083 30.4582 19.7083H39.3281ZM39.3281 23.2917H31.4171L24.7823 33.2439C23.8814 34.5953 21.7913 34.1467 21.5243 32.5446L18.6858 15.5137L14.0323 22.4939C13.7 22.9923 13.1406 23.2917 12.5416 23.2917H3.67169C4.57061 32.3456 12.2095 39.4167 21.4999 39.4167C30.7903 39.4167 38.4292 32.3456 39.3281 23.2917ZM43 21.5C43 33.3741 33.3741 43 21.5 43C9.62588 43 0 33.3741 0 21.5C0 9.62588 9.62588 0 21.5 0C33.3741 0 43 9.62588 43 21.5Z" fill="#4D4D4D"/>
</svg>
