<svg width="24" height="24" viewBox="0 0 24 24" fill="none" xmlns="http://www.w3.org/2000/svg">
<path fill-rule="evenodd" clip-rule="evenodd" d="M16.554 7L13.7788 4.1092C13.3963 3.71079 13.4093 3.07775 13.8077 2.69528C14.2061 2.3128 14.8391 2.32572 15.2216 2.72413L19.2216 6.8908C19.2549 6.92552 19.2853 6.96203 19.3126 7H21.8197C21.9299 7 22.0399 7.0091 22.1485 7.02721C23.2381 7.2088 23.9741 8.23926 23.7925 9.3288L22.2651 18.4932C22.024 19.9398 20.7725 21 19.306 21H4.69446C3.22794 21 1.97637 19.9398 1.73528 18.4932L0.207876 9.3288C0.189766 9.22013 0.180664 9.11016 0.180664 9C0.180664 7.89543 1.07609 7 2.18066 7H4.68781C4.71515 6.96203 4.74548 6.92552 4.77882 6.8908L8.77882 2.72413C9.16129 2.32572 9.79432 2.3128 10.1927 2.69528C10.5911 3.07775 10.6041 3.71079 10.2216 4.1092L7.44642 7H16.554ZM2.18066 9L3.70806 18.1644C3.78843 18.6466 4.20562 19 4.69446 19H19.306C19.7948 19 20.212 18.6466 20.2923 18.1644L21.8197 9H2.18066ZM12.0002 11C12.5525 11 13.0002 11.4477 13.0002 12V16C13.0002 16.5523 12.5525 17 12.0002 17C11.4479 17 11.0002 16.5523 11.0002 16V12C11.0002 11.4477 11.4479 11 12.0002 11ZM7.0002 11C7.55249 11 8.0002 11.4477 8.0002 12V16C8.0002 16.5523 7.55249 17 7.0002 17C6.44792 17 6.0002 16.5523 6.0002 16V12C6.0002 11.4477 6.44792 11 7.0002 11ZM17.0002 11C17.5525 11 18.0002 11.4477 18.0002 12V16C18.0002 16.5523 17.5525 17 17.0002 17C16.4479 17 16.0002 16.5523 16.0002 16V12C16.0002 11.4477 16.4479 11 17.0002 11Z" fill="white"/>
</svg>
