<svg width="30" height="30" viewBox="0 0 30 30" fill="none" xmlns="http://www.w3.org/2000/svg">
<g id="Frame">
<path id="Vector" d="M26.0001 11.0001V3H20.0001V5.0001H18V3H12V7.0002H9.9999V5.0001H3.9999V11.0001H3L5.4474 24.0519C5.751 25.6728 7.35 27 9 27H21C22.6503 27 24.249 25.6728 24.5529 24.0519L27 11.0001H26.0001ZM21.9999 5.0001H24V11.4366C23.3673 11.6895 22.6953 11.9061 21.9999 12.0978V5.0001ZM18 7.0002H20.0001V12.5544C19.3372 12.6747 18.6701 12.77 18 12.84V7.0002ZM14.0001 5.0001H16.0002V12.9768C15.3342 12.9996 14.6664 12.9996 14.0001 12.9768V5.0001ZM9.9999 9H12V12.84C11.3299 12.77 10.6628 12.6747 9.9999 12.5544V9ZM6 7.0002H8.0001V12.0978C7.3053 11.9061 6.6333 11.6895 6 11.4366V7.0002ZM21 25.0002H9C8.3112 25.0002 7.5399 24.3603 7.413 23.6835L7.4046 23.6388C12.0252 21.5001 17.9733 21.5001 22.5957 23.6388L22.587 23.6835C22.4598 24.3603 21.6885 25.0002 21 25.0002ZM22.9767 21.6093C18.0372 19.4784 11.9631 19.4784 7.0245 21.6093L5.4819 13.3839C8.2062 14.4315 11.5263 15 15 15C18.4746 15 21.7938 14.4315 24.5187 13.3842L22.9767 21.6093Z" fill="#3949AB"/>
</g>
</svg>
